<?xml version="1.0" encoding="iso-8859-1"?>
<!-- Uploaded to: SVG Repo, www.svgrepo.com, Generator: SVG Repo Mixer Tools -->
<svg version="1.1" id="Layer_1" xmlns="http://www.w3.org/2000/svg" xmlns:xlink="http://www.w3.org/1999/xlink" 
	 viewBox="0 0 512 512" xml:space="preserve">
<g>
	<rect x="16.54" y="14.086" style="fill:#BBDCE3;" width="84.515" height="483.823"/>
	<rect x="410.942" y="14.086" style="fill:#BBDCE3;" width="84.515" height="483.823"/>
</g>
<rect x="101.052" y="49.681" style="fill:#FECC85;" width="309.89" height="412.632"/>
<path style="fill:#FF5E8A;" d="M298.359,242.611c-23.733,0-42.355,26.463-42.355,26.463s-17.565-26.463-42.365-26.463
	c-24.122,0-43.821,19.896-45.11,43.986c-0.725,13.61,3.661,23.967,9.842,33.347c12.352,18.741,66.353,63.861,77.713,63.861
	c11.594,0,65.115-44.955,77.549-63.861c6.194-9.423,10.569-19.737,9.84-33.347C342.183,262.508,322.483,242.611,298.359,242.611"/>
<path d="M495.46,0h-84.515c-7.778,0-14.086,6.308-14.086,14.086v21.513H115.141V14.086C115.141,6.308,108.835,0,101.055,0H16.54
	C8.76,0,2.454,6.308,2.454,14.086v483.828C2.454,505.692,8.76,512,16.54,512h84.515c7.78,0,14.086-6.308,14.086-14.086v-21.513
	h281.718v21.513c0,7.778,6.308,14.086,14.086,14.086h84.515c7.778,0,14.086-6.308,14.086-14.086V14.086
	C509.546,6.308,503.24,0,495.46,0z M425.031,112.324h56.344v106.781h-56.344V112.324z M425.031,247.277h56.344v106.781h-56.344
	V247.277z M425.031,28.172h56.344v55.98h-56.344V49.685V28.172z M86.969,219.105H30.626V112.324h56.344V219.105z M30.626,247.277
	h56.344v106.781H30.626V247.277z M86.969,28.172v21.513v34.467H30.626v-55.98H86.969z M86.969,483.828H30.626v-101.6h56.344v80.085
	V483.828z M115.141,448.229V179.936h215.928c7.778,0,14.086-6.308,14.086-14.086s-6.308-14.086-14.086-14.086H115.141V63.771
	h281.718v384.458H115.141z M425.031,483.828v-21.513v-80.085h56.344v101.6h-56.344V483.828z"/>
<path d="M386.111,160.469c-0.352-0.859-0.79-1.676-1.296-2.437c-0.521-0.775-1.113-1.493-1.761-2.141
	c-0.648-0.648-1.368-1.24-2.142-1.747c-0.761-0.506-1.578-0.944-2.423-1.296c-0.859-0.352-1.747-0.618-2.634-0.803
	c-1.817-0.366-3.691-0.366-5.508,0c-0.902,0.185-1.789,0.451-2.634,0.803c-0.858,0.352-1.675,0.79-2.435,1.296
	c-0.775,0.507-1.495,1.099-2.142,1.747s-1.24,1.366-1.747,2.141c-0.506,0.761-0.944,1.578-1.296,2.437
	c-0.352,0.845-0.618,1.733-0.801,2.634c-0.183,0.902-0.282,1.831-0.282,2.747c0,0.914,0.099,1.845,0.282,2.745
	c0.183,0.903,0.449,1.79,0.801,2.634c0.352,0.859,0.79,1.676,1.296,2.437c0.507,0.775,1.099,1.493,1.747,2.141
	s1.368,1.24,2.142,1.747c0.761,0.507,1.578,0.944,2.435,1.296c0.847,0.352,1.733,0.62,2.634,0.803
	c0.901,0.183,1.831,0.282,2.747,0.282s1.845-0.099,2.761-0.282c0.887-0.183,1.775-0.451,2.634-0.803
	c0.845-0.352,1.662-0.789,2.423-1.296c0.775-0.507,1.495-1.099,2.142-1.747c0.648-0.648,1.24-1.366,1.761-2.141
	c0.506-0.761,0.928-1.578,1.28-2.437c0.352-0.845,0.634-1.731,0.817-2.634c0.169-0.902,0.268-1.831,0.268-2.745
	c0-0.916-0.099-1.847-0.268-2.747C386.731,162.202,386.464,161.313,386.111,160.469z"/>
<path d="M298.358,228.524c-17.892,0-32.685,10.239-42.252,19.267c-9.466-9.035-24.214-19.267-42.468-19.267
	c-31.464,0-57.456,25.179-59.176,57.321c-1.037,19.416,6.436,33.184,12.148,41.849c7.802,11.838,26.817,29.489,42.01,42.059
	c34.005,28.137,43.435,28.137,47.464,28.137c4.078,0,13.624,0,47.457-28.089c15.079-12.52,33.995-30.156,41.863-42.121
	c5.706-8.681,13.173-22.463,12.134-41.835C355.817,253.703,329.823,228.524,298.358,228.524z M321.863,312.204
	c-10.131,15.407-52.547,50.988-65.747,57.021c-13.317-6.122-55.9-41.731-65.984-57.031c-5.748-8.722-8.002-16.154-7.539-24.845
	c0.904-16.902,14.831-30.654,31.045-30.654c13.942,0,26.86,14.592,30.63,20.167c2.562,3.861,6.875,6.194,11.51,6.272
	c4.637,0.132,9.023-2.144,11.718-5.916c4.078-5.709,17.569-20.523,30.862-20.523c16.216,0,30.142,13.752,31.048,30.655
	C329.876,296.136,327.692,303.339,321.863,312.204z"/>
</svg>